<svg width="215" height="60" viewBox="0 0 215 60" fill="none" xmlns="http://www.w3.org/2000/svg">
<path d="M14.2756 43V16.8182H19.8111V38.4361H31.0355V43H14.2756ZM34.5991 43V23.3636H40.0451V43H34.5991ZM37.3349 20.8324C36.5252 20.8324 35.8306 20.5639 35.2511 20.027C34.68 19.4815 34.3945 18.8295 34.3945 18.071C34.3945 17.321 34.68 16.6776 35.2511 16.1406C35.8306 15.5952 36.5252 15.3224 37.3349 15.3224C38.1445 15.3224 38.8349 15.5952 39.4059 16.1406C39.9854 16.6776 40.2752 17.321 40.2752 18.071C40.2752 18.8295 39.9854 19.4815 39.4059 20.027C38.8349 20.5639 38.1445 20.8324 37.3349 20.8324ZM49.8537 31.6477V43H44.4077V23.3636H49.598V26.8281H49.8281C50.2628 25.6861 50.9915 24.7827 52.0142 24.1179C53.0369 23.4446 54.277 23.108 55.7344 23.108C57.098 23.108 58.2869 23.4062 59.3011 24.0028C60.3153 24.5994 61.1037 25.4517 61.6662 26.5597C62.2287 27.6591 62.5099 28.9716 62.5099 30.4972V43H57.0639V31.4688C57.0724 30.267 56.7656 29.3295 56.1435 28.6562C55.5213 27.9744 54.6648 27.6335 53.5739 27.6335C52.8409 27.6335 52.1932 27.7912 51.6307 28.1065C51.0767 28.4219 50.642 28.8821 50.3267 29.4872C50.0199 30.0838 49.8622 30.804 49.8537 31.6477ZM71.7369 37.3494L71.7496 30.8168H72.5423L78.832 23.3636H85.0835L76.6332 33.233H75.342L71.7369 37.3494ZM66.8022 43V16.8182H72.2482V43H66.8022ZM79.0749 43L73.2965 34.4474L76.9272 30.5994L85.4542 43H79.0749ZM95.8956 43.3835C93.8757 43.3835 92.1371 42.9744 90.6797 42.1562C89.2308 41.3295 88.1143 40.1619 87.3303 38.6534C86.5462 37.1364 86.1541 35.3423 86.1541 33.2713C86.1541 31.2514 86.5462 29.4787 87.3303 27.9531C88.1143 26.4276 89.218 25.2386 90.6413 24.3864C92.0732 23.5341 93.7521 23.108 95.6783 23.108C96.9737 23.108 98.1797 23.3168 99.2962 23.7344C100.421 24.1435 101.401 24.7614 102.237 25.5881C103.08 26.4148 103.737 27.4545 104.205 28.7074C104.674 29.9517 104.908 31.4091 104.908 33.0795V34.5753H88.3274V31.2003H99.782C99.782 30.4162 99.6115 29.7216 99.2706 29.1165C98.9297 28.5114 98.4567 28.0384 97.8516 27.6974C97.255 27.348 96.5604 27.1733 95.7678 27.1733C94.9411 27.1733 94.2081 27.3651 93.5689 27.7486C92.9382 28.1236 92.4439 28.6307 92.0859 29.2699C91.728 29.9006 91.5447 30.6037 91.5362 31.3793V34.5881C91.5362 35.5597 91.7152 36.3991 92.0732 37.1065C92.4396 37.8139 92.9553 38.3594 93.62 38.7429C94.2848 39.1264 95.0732 39.3182 95.9851 39.3182C96.5902 39.3182 97.1442 39.233 97.647 39.0625C98.1499 38.892 98.5803 38.6364 98.9382 38.2955C99.2962 37.9545 99.5689 37.5369 99.7564 37.0426L104.793 37.375C104.538 38.5852 104.013 39.642 103.221 40.5455C102.437 41.4403 101.423 42.1392 100.178 42.642C98.9425 43.1364 97.5149 43.3835 95.8956 43.3835ZM115.698 43.3196C114.207 43.3196 112.856 42.9361 111.646 42.169C110.444 41.3935 109.489 40.2557 108.782 38.7557C108.083 37.2472 107.734 35.3977 107.734 33.2074C107.734 30.9574 108.096 29.0866 108.82 27.5952C109.545 26.0952 110.508 24.9744 111.71 24.233C112.92 23.483 114.245 23.108 115.685 23.108C116.785 23.108 117.701 23.2955 118.434 23.6705C119.175 24.0369 119.772 24.4972 120.224 25.0511C120.684 25.5966 121.033 26.1335 121.272 26.6619H121.438V16.8182H126.871V43H121.502V39.8551H121.272C121.016 40.4006 120.654 40.9418 120.185 41.4787C119.725 42.0071 119.124 42.446 118.383 42.7955C117.65 43.1449 116.755 43.3196 115.698 43.3196ZM117.424 38.9858C118.302 38.9858 119.043 38.7472 119.648 38.2699C120.262 37.7841 120.731 37.1065 121.055 36.2372C121.387 35.3679 121.553 34.3494 121.553 33.1818C121.553 32.0142 121.391 31 121.067 30.1392C120.744 29.2784 120.275 28.6136 119.661 28.1449C119.048 27.6761 118.302 27.4418 117.424 27.4418C116.529 27.4418 115.775 27.6847 115.161 28.1705C114.548 28.6562 114.083 29.3295 113.768 30.1903C113.452 31.0511 113.295 32.0483 113.295 33.1818C113.295 34.3239 113.452 35.3338 113.768 36.2116C114.092 37.081 114.556 37.7628 115.161 38.2571C115.775 38.7429 116.529 38.9858 117.424 38.9858ZM163.843 29.9091C163.843 32.7642 163.302 35.1932 162.219 37.196C161.146 39.1989 159.68 40.7287 157.822 41.7855C155.972 42.8338 153.893 43.358 151.583 43.358C149.256 43.358 147.168 42.8295 145.319 41.7727C143.469 40.7159 142.008 39.1861 140.934 37.1832C139.86 35.1804 139.323 32.7557 139.323 29.9091C139.323 27.054 139.86 24.625 140.934 22.6222C142.008 20.6193 143.469 19.0937 145.319 18.0455C147.168 16.9886 149.256 16.4602 151.583 16.4602C153.893 16.4602 155.972 16.9886 157.822 18.0455C159.68 19.0937 161.146 20.6193 162.219 22.6222C163.302 24.625 163.843 27.054 163.843 29.9091ZM158.231 29.9091C158.231 28.0597 157.954 26.5 157.4 25.2301C156.854 23.9602 156.083 22.9972 155.086 22.3409C154.089 21.6847 152.921 21.3565 151.583 21.3565C150.245 21.3565 149.077 21.6847 148.08 22.3409C147.083 22.9972 146.308 23.9602 145.754 25.2301C145.208 26.5 144.935 28.0597 144.935 29.9091C144.935 31.7585 145.208 33.3182 145.754 34.5881C146.308 35.858 147.083 36.821 148.08 37.4773C149.077 38.1335 150.245 38.4616 151.583 38.4616C152.921 38.4616 154.089 38.1335 155.086 37.4773C156.083 36.821 156.854 35.858 157.4 34.5881C157.954 33.3182 158.231 31.7585 158.231 29.9091ZM180.434 34.6392V23.3636H185.88V43H180.651V39.4332H180.446C180.003 40.5838 179.266 41.5085 178.235 42.2074C177.212 42.9062 175.963 43.2557 174.489 43.2557C173.176 43.2557 172.022 42.9574 171.025 42.3608C170.027 41.7642 169.248 40.9162 168.685 39.8168C168.131 38.7173 167.85 37.4006 167.841 35.8665V23.3636H173.287V34.8949C173.296 36.054 173.607 36.9702 174.221 37.6435C174.834 38.3168 175.657 38.6534 176.688 38.6534C177.344 38.6534 177.958 38.5043 178.529 38.206C179.1 37.8991 179.56 37.4474 179.909 36.8509C180.267 36.2543 180.442 35.517 180.434 34.6392ZM200.68 23.3636V27.4545H188.855V23.3636H200.68ZM191.54 18.6591H196.986V36.9659C196.986 37.4687 197.063 37.8608 197.216 38.142C197.369 38.4148 197.582 38.6065 197.855 38.7173C198.136 38.8281 198.46 38.8835 198.827 38.8835C199.082 38.8835 199.338 38.8622 199.594 38.8196C199.849 38.7685 200.045 38.7301 200.182 38.7045L201.038 42.7571C200.766 42.8423 200.382 42.9403 199.888 43.0511C199.393 43.1705 198.793 43.2429 198.085 43.2685C196.773 43.3196 195.622 43.1449 194.634 42.7443C193.653 42.3437 192.891 41.7216 192.345 40.8778C191.8 40.0341 191.531 38.9687 191.54 37.6818V18.6591Z" fill="black"/>
<path fill-rule="evenodd" clip-rule="evenodd" d="M114.794 51.6723C124.875 49.8941 132.534 41.0914 132.534 30.5C132.534 19.6322 124.47 10.6478 114 9.20294C114.967 9.06915 115.955 9 116.959 9C128.772 9 138.349 18.5767 138.349 30.3902C138.349 42.2037 128.772 51.7805 116.959 51.7805C116.228 51.7805 115.506 51.7438 114.794 51.6723Z" fill="black"/>
</svg>
