<svg width="221" height="50" viewBox="0 0 221 50" fill="none" xmlns="http://www.w3.org/2000/svg">
<rect x="126.5" y="0.5" width="48" height="49" rx="14.5" stroke="black"/>
<path d="M164 36.7244L137.818 36.7244V31.1889L148.621 31.1889V19.9517L137.818 19.9517V14.429L164 14.429V19.9517H153.185V31.1889H164V36.7244Z" fill="black"/>
<path d="M2.27557 38V11.8182H7.81108V33.4361H19.0355V38H2.27557ZM22.5991 38V18.3636H28.0451V38H22.5991ZM25.3349 15.8324C24.5252 15.8324 23.8306 15.5639 23.2511 15.027C22.68 14.4815 22.3945 13.8295 22.3945 13.071C22.3945 12.321 22.68 11.6776 23.2511 11.1406C23.8306 10.5952 24.5252 10.3224 25.3349 10.3224C26.1445 10.3224 26.8349 10.5952 27.4059 11.1406C27.9854 11.6776 28.2752 12.321 28.2752 13.071C28.2752 13.8295 27.9854 14.4815 27.4059 15.027C26.8349 15.5639 26.1445 15.8324 25.3349 15.8324ZM37.8537 26.6477V38H32.4077V18.3636H37.598V21.8281H37.8281C38.2628 20.6861 38.9915 19.7827 40.0142 19.1179C41.0369 18.4446 42.277 18.108 43.7344 18.108C45.098 18.108 46.2869 18.4062 47.3011 19.0028C48.3153 19.5994 49.1037 20.4517 49.6662 21.5597C50.2287 22.6591 50.5099 23.9716 50.5099 25.4972V38H45.0639V26.4688C45.0724 25.267 44.7656 24.3295 44.1435 23.6562C43.5213 22.9744 42.6648 22.6335 41.5739 22.6335C40.8409 22.6335 40.1932 22.7912 39.6307 23.1065C39.0767 23.4219 38.642 23.8821 38.3267 24.4872C38.0199 25.0838 37.8622 25.804 37.8537 26.6477ZM59.7369 32.3494L59.7496 25.8168H60.5423L66.832 18.3636H73.0835L64.6332 28.233H63.342L59.7369 32.3494ZM54.8022 38V11.8182H60.2482V38H54.8022ZM67.0749 38L61.2965 29.4474L64.9272 25.5994L73.4542 38H67.0749ZM83.8956 38.3835C81.8757 38.3835 80.1371 37.9744 78.6797 37.1562C77.2308 36.3295 76.1143 35.1619 75.3303 33.6534C74.5462 32.1364 74.1541 30.3423 74.1541 28.2713C74.1541 26.2514 74.5462 24.4787 75.3303 22.9531C76.1143 21.4276 77.218 20.2386 78.6413 19.3864C80.0732 18.5341 81.7521 18.108 83.6783 18.108C84.9737 18.108 86.1797 18.3168 87.2962 18.7344C88.4212 19.1435 89.4013 19.7614 90.2365 20.5881C91.0803 21.4148 91.7365 22.4545 92.2053 23.7074C92.674 24.9517 92.9084 26.4091 92.9084 28.0795V29.5753H76.3274V26.2003H87.782C87.782 25.4162 87.6115 24.7216 87.2706 24.1165C86.9297 23.5114 86.4567 23.0384 85.8516 22.6974C85.255 22.348 84.5604 22.1733 83.7678 22.1733C82.9411 22.1733 82.2081 22.3651 81.5689 22.7486C80.9382 23.1236 80.4439 23.6307 80.0859 24.2699C79.728 24.9006 79.5447 25.6037 79.5362 26.3793V29.5881C79.5362 30.5597 79.7152 31.3991 80.0732 32.1065C80.4396 32.8139 80.9553 33.3594 81.62 33.7429C82.2848 34.1264 83.0732 34.3182 83.9851 34.3182C84.5902 34.3182 85.1442 34.233 85.647 34.0625C86.1499 33.892 86.5803 33.6364 86.9382 33.2955C87.2962 32.9545 87.5689 32.5369 87.7564 32.0426L92.7933 32.375C92.5376 33.5852 92.0135 34.642 91.2209 35.5455C90.4368 36.4403 89.4226 37.1392 88.1783 37.642C86.9425 38.1364 85.5149 38.3835 83.8956 38.3835ZM103.698 38.3196C102.207 38.3196 100.856 37.9361 99.6456 37.169C98.4439 36.3935 97.4893 35.2557 96.782 33.7557C96.0831 32.2472 95.7337 30.3977 95.7337 28.2074C95.7337 25.9574 96.0959 24.0866 96.8203 22.5952C97.5447 21.0952 98.5078 19.9744 99.7095 19.233C100.92 18.483 102.245 18.108 103.685 18.108C104.785 18.108 105.701 18.2955 106.434 18.6705C107.175 19.0369 107.772 19.4972 108.224 20.0511C108.684 20.5966 109.033 21.1335 109.272 21.6619H109.438V11.8182H114.871V38H109.502V34.8551H109.272C109.016 35.4006 108.654 35.9418 108.185 36.4787C107.725 37.0071 107.124 37.446 106.383 37.7955C105.65 38.1449 104.755 38.3196 103.698 38.3196ZM105.424 33.9858C106.302 33.9858 107.043 33.7472 107.648 33.2699C108.262 32.7841 108.731 32.1065 109.055 31.2372C109.387 30.3679 109.553 29.3494 109.553 28.1818C109.553 27.0142 109.391 26 109.067 25.1392C108.744 24.2784 108.275 23.6136 107.661 23.1449C107.048 22.6761 106.302 22.4418 105.424 22.4418C104.529 22.4418 103.775 22.6847 103.161 23.1705C102.548 23.6562 102.083 24.3295 101.768 25.1903C101.452 26.0511 101.295 27.0483 101.295 28.1818C101.295 29.3239 101.452 30.3338 101.768 31.2116C102.092 32.081 102.556 32.7628 103.161 33.2571C103.775 33.7429 104.529 33.9858 105.424 33.9858ZM190.266 29.6392V18.3636H195.712V38H190.483V34.4332H190.278C189.835 35.5838 189.098 36.5085 188.067 37.2074C187.044 37.9062 185.795 38.2557 184.321 38.2557C183.009 38.2557 181.854 37.9574 180.857 37.3608C179.859 36.7642 179.08 35.9162 178.517 34.8168C177.963 33.7173 177.682 32.4006 177.673 30.8665V18.3636H183.119V29.8949C183.128 31.054 183.439 31.9702 184.053 32.6435C184.666 33.3168 185.489 33.6534 186.52 33.6534C187.176 33.6534 187.79 33.5043 188.361 33.206C188.932 32.8991 189.392 32.4474 189.741 31.8509C190.099 31.2543 190.274 30.517 190.266 29.6392ZM200.17 38V11.8182H205.616V21.6619H205.782C206.021 21.1335 206.366 20.5966 206.818 20.0511C207.278 19.4972 207.875 19.0369 208.608 18.6705C209.349 18.2955 210.27 18.108 211.369 18.108C212.801 18.108 214.122 18.483 215.332 19.233C216.542 19.9744 217.51 21.0952 218.234 22.5952C218.958 24.0866 219.321 25.9574 219.321 28.2074C219.321 30.3977 218.967 32.2472 218.26 33.7557C217.561 35.2557 216.606 36.3935 215.396 37.169C214.194 37.9361 212.848 38.3196 211.356 38.3196C210.299 38.3196 209.4 38.1449 208.659 37.7955C207.926 37.446 207.325 37.0071 206.856 36.4787C206.387 35.9418 206.029 35.4006 205.782 34.8551H205.539V38H200.17ZM205.501 28.1818C205.501 29.3494 205.663 30.3679 205.987 31.2372C206.311 32.1065 206.779 32.7841 207.393 33.2699C208.007 33.7472 208.752 33.9858 209.63 33.9858C210.517 33.9858 211.267 33.7429 211.88 33.2571C212.494 32.7628 212.958 32.081 213.274 31.2116C213.598 30.3338 213.76 29.3239 213.76 28.1818C213.76 27.0483 213.602 26.0511 213.287 25.1903C212.971 24.3295 212.507 23.6562 211.893 23.1705C211.279 22.6847 210.525 22.4418 209.63 22.4418C208.744 22.4418 207.994 22.6761 207.38 23.1449C206.775 23.6136 206.311 24.2784 205.987 25.1392C205.663 26 205.501 27.0142 205.501 28.1818Z" fill="black"/>
</svg>
